<?xml version="1.0" standalone="no"?>
<!DOCTYPE svg PUBLIC "-//W3C//DTD SVG 20010904//EN"
 "http://www.w3.org/TR/2001/REC-SVG-20010904/DTD/svg10.dtd">
<svg version="1.0" xmlns="http://www.w3.org/2000/svg"
 width="800.000000pt" height="286.000000pt" viewBox="0 0 800.000000 286.000000"
 preserveAspectRatio="xMidYMid meet">

<g transform="translate(0.000000,286.000000) scale(0.100000,-0.100000)"
fill="#000000" stroke="none">
<path d="M580 2373 c-30 -15 -87 -58 -127 -96 -159 -152 -250 -374 -213 -525
23 -97 120 -199 200 -209 50 -7 51 4 8 89 -79 154 -33 416 101 586 23 28 46
52 52 52 7 0 9 -207 7 -652 -4 -636 -5 -655 -26 -728 -28 -97 -28 -110 1 -110
67 0 164 105 201 216 30 92 36 214 36 775 l0 556 -24 22 c-24 23 -102 51 -141
51 -11 0 -45 -12 -75 -27z"/>
<path d="M2690 2385 c-11 -13 -16 -55 -18 -151 l-4 -134 -110 0 -109 0 -15
-35 c-19 -46 -18 -101 2 -109 9 -3 61 -6 115 -6 l100 0 -3 -262 -3 -263 -33
-67 c-18 -36 -51 -87 -75 -113 l-42 -47 0 64 c-1 104 -42 159 -221 295 l-91
69 19 25 c39 47 81 143 82 186 1 54 -18 74 -78 80 -158 18 -281 -167 -201
-303 l25 -42 -70 -127 c-123 -221 -184 -305 -222 -305 -35 0 -41 66 -34 370 7
325 10 310 -77 360 -155 89 -272 -13 -397 -346 -22 -59 -42 -110 -45 -112 -2
-3 -1 88 2 200 3 112 3 216 0 230 -5 20 -18 30 -54 42 -25 9 -63 16 -83 16
l-37 0 -6 -97 c-11 -160 -8 -707 4 -762 13 -62 36 -83 97 -89 72 -6 88 6 95
75 14 125 87 363 156 503 45 92 125 210 141 210 5 0 8 -145 7 -322 -2 -289 0
-328 16 -368 45 -113 129 -129 240 -45 58 44 123 134 241 333 l97 163 59 -51
c135 -117 177 -211 132 -300 -34 -69 -90 -74 -179 -15 -29 19 -61 35 -71 35
-42 0 -102 -103 -82 -140 27 -50 163 -86 291 -77 153 10 278 103 365 271 l41
78 12 -75 c34 -208 169 -324 300 -257 49 25 104 88 143 164 l30 59 23 -58 c33
-80 71 -125 135 -157 61 -32 104 -35 178 -13 54 16 145 90 171 139 19 35 28
33 35 -9 14 -72 112 -145 194 -145 59 0 148 63 173 121 13 33 25 37 33 11 8
-25 74 -90 110 -110 20 -11 55 -17 101 -17 59 0 78 5 124 30 29 16 68 46 86
67 l32 38 6 -35 c3 -20 3 -42 0 -48 -3 -7 -65 -67 -139 -135 -144 -133 -225
-231 -249 -301 -57 -168 58 -311 250 -311 65 0 160 45 206 98 83 94 110 209
114 484 l3 206 50 64 c109 139 196 290 273 473 l38 90 77 3 77 3 -7 -28 c-27
-128 -38 -237 -34 -342 5 -124 22 -187 65 -252 51 -78 156 -123 232 -100 41
12 103 64 132 110 l15 23 27 -40 c33 -51 100 -91 165 -99 95 -11 204 46 266
138 l33 49 12 -40 c24 -80 112 -149 190 -150 58 0 116 35 153 93 l33 52 5 -50
c3 -28 9 -55 13 -62 16 -25 120 -41 175 -27 28 8 30 18 42 199 11 177 41 307
101 435 50 105 54 100 62 -105 8 -166 29 -326 50 -378 28 -66 107 -102 164
-75 27 13 28 16 36 112 10 134 50 307 100 435 l42 106 6 -230 c7 -247 18 -312
65 -393 53 -90 152 -131 240 -97 52 20 87 62 113 136 39 111 39 199 1 199 -22
0 -31 -16 -54 -100 -23 -82 -50 -120 -84 -120 -33 0 -54 20 -79 75 -15 35 -18
80 -21 350 -4 355 1 338 -99 375 -67 25 -115 26 -137 2 -31 -36 -123 -312
-148 -450 -12 -64 -13 -65 -20 -32 -4 19 -10 118 -14 220 -5 142 -10 192 -23
213 -32 57 -158 89 -197 50 -21 -22 -36 -56 -95 -223 l-48 -135 -1 150 c0 83
-3 160 -6 172 -10 38 -167 73 -179 40 -3 -7 -9 -154 -13 -327 l-8 -315 -31
-65 c-16 -36 -42 -75 -56 -88 -32 -30 -73 -26 -98 8 -34 46 -40 122 -37 439
l3 305 -30 17 c-16 10 -53 21 -81 24 -56 8 -84 -8 -84 -48 0 -19 -4 -17 -37
15 -94 92 -222 91 -316 0 -115 -111 -179 -365 -149 -581 10 -68 9 -80 -10
-123 -46 -108 -126 -105 -174 7 -12 27 -19 77 -22 155 -3 100 0 135 27 269 18
89 29 167 26 183 -4 15 -19 37 -33 49 -24 19 -35 20 -92 15 -36 -3 -95 -12
-132 -20 l-68 -14 0 52 c0 42 -5 57 -23 74 -26 24 -89 30 -129 11 -49 -22 -89
-116 -74 -173 3 -14 18 -38 32 -55 l26 -31 -27 -81 c-14 -44 -40 -110 -56
-146 -34 -75 -124 -229 -141 -239 -8 -5 -10 79 -5 313 7 360 10 341 -68 362
-77 21 -125 4 -125 -43 0 -14 -6 -11 -29 13 -64 68 -175 90 -257 50 -84 -40
-156 -150 -196 -298 -17 -61 -21 -110 -22 -251 -2 -188 -7 -210 -59 -258 -54
-51 -117 -4 -133 101 -5 28 -7 188 -6 355 l3 303 -36 15 c-19 8 -56 17 -80 21
-52 7 -75 -7 -75 -44 0 -24 -1 -23 -46 16 -132 116 -304 62 -394 -123 -41 -85
-59 -161 -70 -300 -8 -103 -13 -127 -43 -191 -45 -94 -97 -147 -140 -143 -40
4 -61 43 -77 143 -11 68 -8 381 6 603 l6 92 52 0 c28 0 88 3 133 6 73 6 82 9
92 31 6 13 11 39 11 57 0 31 -3 34 -37 40 -21 3 -65 6 -99 6 -34 0 -81 3 -106
6 l-45 6 1 132 1 131 -52 17 c-87 29 -127 32 -143 13z m860 -630 c68 -35 102
-187 82 -362 -19 -171 -65 -273 -137 -307 -35 -17 -40 -17 -71 -3 -63 31 -94
128 -94 300 0 192 40 323 113 368 39 23 68 24 107 4z m925 -18 c42 -42 55
-103 55 -250 -1 -229 -67 -393 -168 -413 -27 -6 -36 -2 -66 28 -52 52 -71 126
-70 278 0 86 6 145 18 190 46 173 150 248 231 167z m1567 -6 c42 -47 53 -100
53 -261 0 -121 -4 -157 -22 -216 -26 -83 -56 -130 -102 -161 -45 -30 -63 -29
-106 8 -54 47 -70 113 -70 284 1 151 13 220 52 298 45 91 137 113 195 48z
m-1502 -1163 c-14 -90 -47 -175 -75 -194 -95 -62 -196 -6 -180 101 13 88 59
162 190 309 l70 79 3 -114 c1 -63 -2 -144 -8 -181z"/>
</g>
</svg>
