<svg xmlns="http://www.w3.org/2000/svg" width="14" height="14" fill="none" viewBox="0 0 14 14" id="add-button"><path fill="#000" fill-rule="evenodd" d="M11 2H3C2.44772 2 2 2.44772 2 3V11C2 11.5523 2.44772 12 3 12H11C11.5523 12 12 11.5523 12 11V3C12 2.44772 11.5523 2 11 2ZM3 1C1.89543 1 1 1.89543 1 3V11C1 12.1046 1.89543 13 3 13H11C12.1046 13 13 12.1046 13 11V3C13 1.89543 12.1046 1 11 1H3Z" clip-rule="evenodd"></path><path fill="#000" fill-rule="evenodd" d="M7 4C7.27614 4 7.5 4.22386 7.5 4.5V9.5C7.5 9.77614 7.27614 10 7 10C6.72386 10 6.5 9.77614 6.5 9.5V4.5C6.5 4.22386 6.72386 4 7 4Z" clip-rule="evenodd"></path><path fill="#000" fill-rule="evenodd" d="M10 7C10 7.27614 9.77614 7.5 9.5 7.5L4.5 7.5C4.22386 7.5 4 7.27614 4 7C4 6.72386 4.22386 6.5 4.5 6.5L9.5 6.5C9.77614 6.5 10 6.72386 10 7Z" clip-rule="evenodd"></path></svg>